<svg xmlns="http://www.w3.org/2000/svg" viewBox="0 0 360 360"
     fill="none" shape-rendering="auto">
    <metadata xmlns:rdf="http://www.w3.org/1999/02/22-rdf-syntax-ns#"
              xmlns:xsi="http://www.w3.org/2001/XMLSchema-instance"
              xmlns:dc="http://purl.org/dc/elements/1.1/"
              xmlns:dcterms="http://purl.org/dc/terms/">
        <rdf:RDF><rdf:Description><dc:title>Avatar Illustration System</dc:title>
            <dc:creator>Micah Lanier</dc:creator>
            <dc:source xsi:type="dcterms:URI">https://www.figma.com/community/file/829741575478342595</dc:source>
            <dcterms:license xsi:type="dcterms:URI">https://creativecommons.org/licenses/by/4.0/</dcterms:license>
            <dc:rights>Remix of „Avatar Illustration System” (https://www.figma.com/community/file/829741575478342595) by „Micah Lanier”, licensed under „CC BY 4.0” (https://creativecommons.org/licenses/by/4.0/)</dc:rights>
        </rdf:Description></rdf:RDF>
    </metadata><mask id="viewboxMask"><rect width="360" height="360" rx="0" ry="0" x="0" y="0" fill="#fff" />
</mask><g mask="url(#viewboxMask)"><g transform="translate(80 23)">
    <path d="M154 319.5c-14.4-20-25.67-58.67-27-78L58.5 212 30 319.5h124Z" fill="#ac6651" stroke="#000" stroke-width="4"/>
    <path d="M130.37 263.69c-2.1.2-4.22.31-6.37.31-30.78 0-56.05-21.57-58.76-49.1L127 241.5c.38 5.48 1.55 13.32 3.37 22.19Z" fill="#000" style="mix-blend-mode:multiply"/><path d="M181.94 151.37v.01l.1.4.14.65A75.72 75.72 0 0 1 34.93 187.7l-.2-.74L18 117.13l-.06-.29A75.72 75.72 0 0 1 165.2 81.55l.05.21.02.08.05.2.05.2v.01l16.4 68.44.08.34.08.34Z" fill="#ac6651" stroke="#000" stroke-width="4"/><g transform="translate(34 102.3)"><g fill="#000000"><path d="M31 109a1 1 0 1 1-2 0 1 1 0 0 1 2 0ZM83 116a1 1 0 1 1-2 0 1 1 0 0 1 2 0ZM79 123a1 1 0 1 1-2 0 1 1 0 0 1 2 0ZM99 121a1 1 0 1 1-2 0 1 1 0 0 1 2 0ZM100 111a1 1 0 1 1-2 0 1 1 0 0 1 2 0ZM120 116a1 1 0 1 1-2 0 1 1 0 0 1 2 0ZM130 102a1 1 0 1 1-2 0 1 1 0 0 1 2 0ZM21 88a1 1 0 1 1-2 0 1 1 0 0 1 2 0ZM54 104a1 1 0 1 1-2 0 1 1 0 0 1 2 0ZM51 124a1 1 0 1 1-2 0 1 1 0 0 1 2 0ZM69 128a1 1 0 1 1-2 0 1 1 0 0 1 2 0ZM103 102a1 1 0 1 1-2 0 1 1 0 0 1 2 0ZM117 106a1 1 0 1 1-2 0 1 1 0 0 1 2 0ZM109 123a1 1 0 1 1-2 0 1 1 0 0 1 2 0ZM123 92a1 1 0 1 1-2 0 1 1 0 0 1 2 0ZM30 94a1 1 0 1 1-2 0 1 1 0 0 1 2 0ZM54 94a1 1 0 1 1-2 0 1 1 0 0 1 2 0ZM54 76a1 1 0 1 1-2 0 1 1 0 0 1 2 0ZM58 130a1 1 0 1 1-2 0 1 1 0 0 1 2 0ZM85 130a1 1 0 1 1-2 0 1 1 0 0 1 2 0ZM96 130a1 1 0 1 1-2 0 1 1 0 0 1 2 0ZM113 94a1 1 0 1 1-2 0 1 1 0 0 1 2 0ZM113 76a1 1 0 1 1-2 0 1 1 0 0 1 2 0ZM133 89a1 1 0 1 1-2 0 1 1 0 0 1 2 0ZM33 81a1 1 0 1 1-2 0 1 1 0 0 1 2 0ZM43 116a1 1 0 1 1-2 0 1 1 0 0 1 2 0ZM39 123a1 1 0 1 1-2 0 1 1 0 0 1 2 0ZM79 103a1 1 0 1 1-2 0 1 1 0 0 1 2 0ZM91 105a1 1 0 1 1-2 0 1 1 0 0 1 2 0ZM77 135a1 1 0 1 1-2 0 1 1 0 0 1 2 0ZM100 84a1 1 0 1 1-2 0 1 1 0 0 1 2 0ZM100 66a1 1 0 1 1-2 0 1 1 0 0 1 2 0ZM124 81a1 1 0 1 1-2 0 1 1 0 0 1 2 0ZM131 71a1 1 0 1 1-2 0 1 1 0 0 1 2 0ZM42 90a1 1 0 1 1-2 0 1 1 0 0 1 2 0ZM42 101a1 1 0 1 1-2 0 1 1 0 0 1 2 0ZM63 86a1 1 0 1 1-2 0 1 1 0 0 1 2 0ZM63 68a1 1 0 1 1-2 0 1 1 0 0 1 2 0ZM75 82a1 1 0 1 1-2 0 1 1 0 0 1 2 0ZM87 76a1 1 0 1 1-2 0 1 1 0 0 1 2 0ZM100 76a1 1 0 1 1-2 0 1 1 0 0 1 2 0Z"/><path d="M113 76a1 1 0 1 1-2 0 1 1 0 0 1 2 0ZM139 76a1 1 0 1 1-2 0 1 1 0 0 1 2 0ZM61 116a1 1 0 1 1-2 0 1 1 0 0 1 2 0ZM72 110a1 1 0 1 1-2 0 1 1 0 0 1 2 0ZM68 102a1 1 0 1 1-2 0 1 1 0 0 1 2 0ZM92 93a1 1 0 1 1-2 0 1 1 0 0 1 2 0ZM43 75a1 1 0 1 1-2 0 1 1 0 0 1 2 0ZM80 91a1 1 0 1 1-2 0 1 1 0 0 1 2 0ZM80 73a1 1 0 1 1-2 0 1 1 0 0 1 2 0ZM115 87a1 1 0 1 1-2 0 1 1 0 0 1 2 0ZM115 69a1 1 0 1 1-2 0 1 1 0 0 1 2 0ZM122 71a1 1 0 1 1-2 0 1 1 0 0 1 2 0ZM137 62a1 1 0 1 1-2 0 1 1 0 0 1 2 0Z"/><path d="M31 109a1 1 0 1 1-2 0 1 1 0 0 1 2 0ZM83 116a1 1 0 1 1-2 0 1 1 0 0 1 2 0ZM79 123a1 1 0 1 1-2 0 1 1 0 0 1 2 0ZM99 121a1 1 0 1 1-2 0 1 1 0 0 1 2 0ZM100 111a1 1 0 1 1-2 0 1 1 0 0 1 2 0ZM120 116a1 1 0 1 1-2 0 1 1 0 0 1 2 0ZM130 102a1 1 0 1 1-2 0 1 1 0 0 1 2 0ZM21 88a1 1 0 1 1-2 0 1 1 0 0 1 2 0ZM54 104a1 1 0 1 1-2 0 1 1 0 0 1 2 0ZM51 124a1 1 0 1 1-2 0 1 1 0 0 1 2 0ZM69 128a1 1 0 1 1-2 0 1 1 0 0 1 2 0ZM103 102a1 1 0 1 1-2 0 1 1 0 0 1 2 0ZM117 106a1 1 0 1 1-2 0 1 1 0 0 1 2 0ZM109 123a1 1 0 1 1-2 0 1 1 0 0 1 2 0ZM123 92a1 1 0 1 1-2 0 1 1 0 0 1 2 0ZM30 94a1 1 0 1 1-2 0 1 1 0 0 1 2 0ZM54 94a1 1 0 1 1-2 0 1 1 0 0 1 2 0ZM54 76a1 1 0 1 1-2 0 1 1 0 0 1 2 0ZM58 130a1 1 0 1 1-2 0 1 1 0 0 1 2 0ZM85 130a1 1 0 1 1-2 0 1 1 0 0 1 2 0ZM96 130a1 1 0 1 1-2 0 1 1 0 0 1 2 0ZM113 94a1 1 0 1 1-2 0 1 1 0 0 1 2 0ZM113 76a1 1 0 1 1-2 0 1 1 0 0 1 2 0ZM133 89a1 1 0 1 1-2 0 1 1 0 0 1 2 0ZM33 81a1 1 0 1 1-2 0 1 1 0 0 1 2 0ZM43 116a1 1 0 1 1-2 0 1 1 0 0 1 2 0ZM39 123a1 1 0 1 1-2 0 1 1 0 0 1 2 0ZM79 103a1 1 0 1 1-2 0 1 1 0 0 1 2 0ZM91 105a1 1 0 1 1-2 0 1 1 0 0 1 2 0ZM77 135a1 1 0 1 1-2 0 1 1 0 0 1 2 0ZM100 84a1 1 0 1 1-2 0 1 1 0 0 1 2 0ZM100 66a1 1 0 1 1-2 0 1 1 0 0 1 2 0ZM124 81a1 1 0 1 1-2 0 1 1 0 0 1 2 0ZM131 71a1 1 0 1 1-2 0 1 1 0 0 1 2 0ZM42 90a1 1 0 1 1-2 0 1 1 0 0 1 2 0ZM42 101a1 1 0 1 1-2 0 1 1 0 0 1 2 0ZM63 86a1 1 0 1 1-2 0 1 1 0 0 1 2 0ZM63 68a1 1 0 1 1-2 0 1 1 0 0 1 2 0ZM75 82a1 1 0 1 1-2 0 1 1 0 0 1 2 0ZM87 76a1 1 0 1 1-2 0 1 1 0 0 1 2 0ZM100 76a1 1 0 1 1-2 0 1 1 0 0 1 2 0Z" stroke="#000"/><path d="M113 76a1 1 0 1 1-2 0 1 1 0 0 1 2 0ZM139 76a1 1 0 1 1-2 0 1 1 0 0 1 2 0ZM61 116a1 1 0 1 1-2 0 1 1 0 0 1 2 0ZM72 110a1 1 0 1 1-2 0 1 1 0 0 1 2 0ZM68 102a1 1 0 1 1-2 0 1 1 0 0 1 2 0ZM92 93a1 1 0 1 1-2 0 1 1 0 0 1 2 0ZM43 75a1 1 0 1 1-2 0 1 1 0 0 1 2 0ZM80 91a1 1 0 1 1-2 0 1 1 0 0 1 2 0ZM80 73a1 1 0 1 1-2 0 1 1 0 0 1 2 0ZM115 87a1 1 0 1 1-2 0 1 1 0 0 1 2 0ZM115 69a1 1 0 1 1-2 0 1 1 0 0 1 2 0ZM122 71a1 1 0 1 1-2 0 1 1 0 0 1 2 0ZM137 62a1 1 0 1 1-2 0 1 1 0 0 1 2 0Z" stroke="#000"/></g></g></g><g transform="translate(170 183)"><path d="M64.73 25.7a36 36 0 0 0 1.18-12.54 4.98 4.98 0 0 0-6.8-4.2c-4.26 1.67-18.03 6.88-27.62 8.2-10.52 1.44-26.66-.32-31.44-.91a4.98 4.98 0 0 0-5.53 5.74 36 36 0 0 0 70.21 3.7Z" fill="#000000"/><path d="M51.83 39.55a32 32 0 0 1-37.2 4.62 21.5 21.5 0 0 1 37.2-4.62Z" fill="#FC909F"/></g><g transform="translate(110 102)"><path d="M99 10.21c5.67-2.66 19-5.1 27 6.5M23.58 35.52c2.07-5.9 9.68-17.12 23.56-14.7" stroke="#000000" stroke-width="4" stroke-linecap="round"/></g><g transform="translate(49 11)"><path d="M123.79 17.49H123.94a96.78 96.78 0 0 1 62.07 24.36c14.06 12.4 22.45 26.87 25.19 36.73-4.06 2.32-11.01 4.31-19.88 5.95-9.68 1.78-21.3 3.08-33.15 4.01-23.7 1.86-48.2 2.2-59.63 1.96l-6.07-.13 4.8 3.71c2.5 1.93 5.83 3.28 9.34 4.22 3.55.95 7.42 1.54 11.14 1.87 3.82.34 7.55.42 10.64.34-10.59 8.16-24.06 14.44-37.35 19.09a225.88 225.88 0 0 1-39.83 9.92l-2.15.32.5 2.11c3.34 14.43 9.5 39.65 13.62 56.57 1.83 7.5 3.26 13.38 3.87 15.94 1.09 4.56 4.5 11.05 8.4 17.03 3.6 5.52 7.78 10.89 11.32 14.2l-7.84 31.81H49.37c8.34-12.71 10.1-27.4 8.4-42.98-1.84-16.87-7.76-35-14-53.17l-1.85-5.36c-5.69-16.46-11.36-32.88-14.43-48.6-3.4-17.44-3.56-33.75 2.83-48.09 10.34-23.21 28.66-36.7 47-44.12 18.37-7.45 36.61-8.76 46.46-7.71Z" fill="#f4d150" stroke="#000" stroke-width="4"/></g><g transform="translate(142 119)"><circle cx="15.24" cy="20.24" r="12" transform="rotate(-6.28 15.24 20.24)" fill="#ffffff"/><ellipse cx="16.53" cy="29.4" rx="9" ry="13.5" transform="rotate(-6.78 16.53 29.4)" fill="#000000"/><circle cx="79.02" cy="11.61" r="12" transform="rotate(-6.28 79.02 11.61)" fill="#ffffff"/><ellipse cx="80.53" cy="19.4" rx="9" ry="13.5" transform="rotate(-6.28 80.53 19.4)" fill="#000000"/><g transform="translate(-40 -8)"></g></g><g transform="rotate(-8 1149.44 -1186.92)"><path d="M16.5 7c-.33 3.83 0 12.2 4 15 5 3.5-.5 12-10.5 10" stroke="#000" stroke-width="4"/></g><g transform="translate(84 154)"><path d="M30.5 6.18A23.78 23.78 0 0 0 23.08 5c-10.5 0-19 6.5-18 18.5 1.04 12.5 8.5 17 19 17A19.6 19.6 0 0 0 31 39.23" stroke="#000" stroke-width="8"/><path d="M31.5 39.04a19.38 19.38 0 0 1-7.42 1.46c-10.5 0-17.96-4.5-19-17-1-12 7.5-18.5 18-18.5 3.14 0 6.19.6 8.92 1.73l-.5 32.3Z" fill="#ac6651"/><path d="M27.5 13.5c-4-1.83-12.8-2.8-16 8" stroke="#000" stroke-width="4"/><path d="M17 14c2.17 1.83 6.3 7.5 5.5 15.5" stroke="#000" stroke-width="4"/><g transform="translate(3 35)"></g></g><g transform="translate(53 272)"><g stroke="#000" stroke-width="4"><path d="M126.77 67.58 128 66l-1.23 1.58 1.72 1.34 1.19-1.83v-.02l.05-.06.04-.05a28.57 28.57 0 0 1 .8-1.18 112.35 112.35 0 0 1 11.5-14.05c3.67-3.78 7.83-7.4 12.13-9.93 4.31-2.53 8.58-3.84 12.53-3.3C209.17 44.2 240.4 63 260.67 91h-273.3c16.3-29.34 39.49-48.02 77.07-56.59 1.6-.36 3.78-.25 6.5.38 2.7.63 5.77 1.73 9.09 3.19 6.62 2.9 14.02 7.16 20.97 11.56a355.78 355.78 0 0 1 25.24 17.63l.4.3.1.08.02.02h.01Z" fill="#e0ddff"/><path d="m52.61 37.08 5.17-19.23c.2-.78 1.22-1 1.76-.4C74.4 33.7 93.16 33.08 99.4 32.33c.84-.1 1.5.82 1.1 1.58L87.34 58.86c-.2.38-.62.6-1.04.5-3.95-.82-23.62-5.63-33.57-21.5a1 1 0 0 1-.12-.78ZM183.2 36.98 171.61 17.5c-.4-.66-1.37-.65-1.79 0-5.73 8.83-15.63 12.9-19.09 14.1-.62.22-.9.96-.57 1.53l13.5 22.81c.2.34.59.53.97.42 2.13-.61 9.46-3.67 18.54-18.34a1 1 0 0 0 .01-1.04Z" fill="#e0ddff"/><path d="m52.61 37.08 5.17-19.23c.2-.78 1.22-1 1.76-.4C74.4 33.7 93.16 33.08 99.4 32.33c.84-.1 1.5.82 1.1 1.58L87.34 58.86c-.2.38-.62.6-1.04.5-3.95-.82-23.62-5.63-33.57-21.5a1 1 0 0 1-.12-.78ZM183.2 36.98 171.61 17.5c-.4-.66-1.37-.65-1.79 0-5.73 8.83-15.63 12.9-19.09 14.1-.62.22-.9.96-.57 1.53l13.5 22.81c.2.34.59.53.97.42 2.13-.61 9.46-3.67 18.54-18.34a1 1 0 0 0 .01-1.04Z" fill="#fff" fill-opacity=".75"/><path d="m109.5 54.5-9-21.5-7 15 16 6.5ZM141 53.5l9-21.5 7 15-16 6.5ZM70.5 14l-12 3 10 6.5 2-9.5ZM160 14l11 3-7 6.5-4-9.5Z" fill="#000" stroke-linejoin="round"/></g></g></g></svg>